<svg xmlns="http://www.w3.org/2000/svg" viewBox="0 0 939.32 1411.14"><defs><style>.cls-1{fill:#3c3c3b;}</style></defs><g id="레이어_2" data-name="레이어 2"><g id="_Layer_" data-name="&lt;Layer&gt;"><path class="cls-1" d="M469.66,1136.05a8.49,8.49,0,0,1-6.64-3.19L353.19,995.31a8.48,8.48,0,0,1,0-10.6L463,847.16a8.49,8.49,0,0,1,13.28,0L586.14,984.71a8.51,8.51,0,0,1,0,10.6L476.3,1132.86A8.48,8.48,0,0,1,469.66,1136.05Zm-99-146,99,123.92,99-123.92-99-123.92Z"/><path class="cls-1" d="M250,1136.05a8.51,8.51,0,0,1-6.65-3.19L133.52,995.31a8.51,8.51,0,0,1,0-10.6L243.35,847.16a8.5,8.5,0,0,1,13.29,0L366.47,984.71a8.48,8.48,0,0,1,0,10.6L256.64,1132.86A8.49,8.49,0,0,1,250,1136.05ZM151,990l99,123.92L349,990,250,866.09Z"/><path class="cls-1" d="M689.33,1136.05a8.51,8.51,0,0,1-6.65-3.19L572.85,995.31a8.51,8.51,0,0,1,0-10.6L682.68,847.16a8.5,8.5,0,0,1,13.29,0L805.8,984.71a8.48,8.48,0,0,1,0,10.6L696,1132.86A8.49,8.49,0,0,1,689.33,1136.05Zm-99-146,99,123.92L788.28,990,689.33,866.09Z"/><path class="cls-1" d="M469.66,861a8.49,8.49,0,0,1-6.64-3.19L353.19,720.22a8.48,8.48,0,0,1,0-10.6L463,572.07a8.49,8.49,0,0,1,13.28,0L586.14,709.62a8.51,8.51,0,0,1,0,10.6L476.3,857.77A8.48,8.48,0,0,1,469.66,861Zm-99-146,99,123.92,99-123.92L469.66,591Z"/><path class="cls-1" d="M469.66,1411.14A8.49,8.49,0,0,1,463,1408L353.19,1270.4a8.48,8.48,0,0,1,0-10.6L463,1122.25a8.49,8.49,0,0,1,13.28,0L586.14,1259.8a8.51,8.51,0,0,1,0,10.6L476.3,1408A8.48,8.48,0,0,1,469.66,1411.14Zm-99-146,99,123.92,99-123.92-99-123.92Z"/><path class="cls-1" d="M579.49,1273.6a8.5,8.5,0,0,1-6.64-3.2L463,1132.86a8.5,8.5,0,0,1,0-10.61L572.85,984.71a8.5,8.5,0,0,1,13.29,0L696,1122.25a8.5,8.5,0,0,1,0,10.61L586.14,1270.4A8.52,8.52,0,0,1,579.49,1273.6Zm-98.95-146,98.95,123.93,99-123.93-99-123.92Z"/><path class="cls-1" d="M359.83,1273.6a8.5,8.5,0,0,1-6.64-3.2L243.35,1132.86a8.52,8.52,0,0,1,0-10.61L353.19,984.71a8.49,8.49,0,0,1,13.28,0L476.3,1122.25a8.5,8.5,0,0,1,0,10.61L366.47,1270.4A8.49,8.49,0,0,1,359.83,1273.6Zm-98.95-146,98.95,123.93,98.95-123.93-98.95-123.92Z"/><path class="cls-1" d="M579.49,998.51a8.5,8.5,0,0,1-6.64-3.2L463,857.77a8.5,8.5,0,0,1,0-10.61L572.85,709.62a8.5,8.5,0,0,1,13.29,0L696,847.16a8.5,8.5,0,0,1,0,10.61L586.14,995.31A8.52,8.52,0,0,1,579.49,998.51Zm-98.95-146,98.95,123.93,99-123.93-99-123.92Z"/><path class="cls-1" d="M359.83,998.51a8.5,8.5,0,0,1-6.64-3.2L243.35,857.77a8.52,8.52,0,0,1,0-10.61L353.19,709.62a8.49,8.49,0,0,1,13.28,0L476.3,847.16a8.5,8.5,0,0,1,0,10.61L366.47,995.31A8.49,8.49,0,0,1,359.83,998.51Zm-98.95-146,98.95,123.93,98.95-123.93L359.83,728.54Z"/><path class="cls-1" d="M469.66,1411.14c-45.88,0-90.37-11.24-132.23-33.41C297.16,1356.4,261,1325.9,230,1287.09c-63.43-79.44-98.36-184.94-98.36-297.08S166.6,772.37,230,692.93c31-38.81,67.13-69.31,107.4-90.64,41.86-22.17,86.35-33.42,132.23-33.42S560,580.12,601.9,602.29c40.27,21.33,76.4,51.83,107.39,90.64,63.44,79.44,98.37,184.94,98.37,297.08s-34.93,217.64-98.37,297.08c-31,38.81-67.12,69.31-107.39,90.64C560,1399.9,515.54,1411.14,469.66,1411.14Zm0-825.27c-85.37,0-165.76,41.79-226.34,117.67C182.28,780,148.67,881.71,148.67,990s33.61,210,94.65,286.47c60.58,75.88,141,117.66,226.34,117.66S635.42,1352.36,696,1276.48c61-76.43,94.65-178.17,94.65-286.47S757,780,696,703.54C635.42,627.66,555,585.87,469.66,585.87Z"/><path class="cls-1" d="M469.66,1411.14c-45.88,0-90.37-11.24-132.23-33.41C297.16,1356.4,261,1325.9,230,1287.09c-63.43-79.44-98.36-184.94-98.36-297.08S166.6,772.37,230,692.93c31-38.81,67.13-69.31,107.4-90.64,41.86-22.17,86.35-33.42,132.23-33.42S560,580.12,601.9,602.29c40.27,21.33,76.4,51.83,107.39,90.64,63.44,79.44,98.37,184.94,98.37,297.08s-34.93,217.64-98.37,297.08c-31,38.81-67.12,69.31-107.39,90.64C560,1399.9,515.54,1411.14,469.66,1411.14Zm0-825.27c-85.37,0-165.76,41.79-226.34,117.67C182.28,780,148.67,881.71,148.67,990s33.61,210,94.65,286.47c60.58,75.88,141,117.66,226.34,117.66S635.42,1352.36,696,1276.48c61-76.43,94.65-178.17,94.65-286.47S757,780,696,703.54C635.42,627.66,555,585.87,469.66,585.87Z"/><path class="cls-1" d="M469.66,1411.14c-45.88,0-90.37-11.24-132.23-33.41C297.16,1356.4,261,1325.9,230,1287.09c-63.43-79.44-98.36-184.94-98.36-297.08S166.6,772.37,230,692.93c31-38.81,67.13-69.31,107.4-90.64,41.86-22.17,86.35-33.42,132.23-33.42S560,580.12,601.9,602.29c40.27,21.33,76.4,51.83,107.39,90.64,63.44,79.44,98.37,184.94,98.37,297.08s-34.93,217.64-98.37,297.08c-31,38.81-67.12,69.31-107.39,90.64C560,1399.9,515.54,1411.14,469.66,1411.14Zm0-825.27c-85.37,0-165.76,41.79-226.34,117.67C182.28,780,148.67,881.71,148.67,990s33.61,210,94.65,286.47c60.58,75.88,141,117.66,226.34,117.66S635.42,1352.36,696,1276.48c61-76.43,94.65-178.17,94.65-286.47S757,780,696,703.54C635.42,627.66,555,585.87,469.66,585.87Z"/><path class="cls-1" d="M250,861a8.48,8.48,0,0,1-6.64-3.19L181.65,780.5a8.51,8.51,0,0,1-1-9c27.83-57,66.66-105.64,112.31-140.56a8.5,8.5,0,0,1,11.81,1.44l61.7,77.28a8.48,8.48,0,0,1,0,10.6L256.64,857.77A8.49,8.49,0,0,1,250,861Zm-51.69-86.84L250,838.84,349,714.92l-52.2-65.38C257.27,681.42,223.42,724.25,198.31,774.12Z"/><path class="cls-1" d="M689.33,861a8.51,8.51,0,0,1-6.65-3.19L572.85,720.22a8.51,8.51,0,0,1,0-10.6l61.71-77.28a8.49,8.49,0,0,1,11.8-1.44c45.65,34.92,84.48,83.53,112.31,140.56a8.51,8.51,0,0,1-1,9L696,857.77A8.49,8.49,0,0,1,689.33,861Zm-99-146,99,123.92L741,774.12c-25.1-49.87-59-92.7-98.43-124.58Z"/><path class="cls-1" d="M641.21,1350.87a8.47,8.47,0,0,1-6.65-3.19l-61.71-77.28a8.51,8.51,0,0,1,0-10.6l109.83-137.55a8.5,8.5,0,0,1,13.29,0l61.7,77.27a8.5,8.5,0,0,1,1,9c-27.82,57-66.66,105.65-112.31,140.57A8.43,8.43,0,0,1,641.21,1350.87Zm-50.84-85.77,52.21,65.38c39.47-31.88,73.33-74.72,98.43-124.58l-51.68-64.72Z"/><path class="cls-1" d="M298.12,1350.87a8.46,8.46,0,0,1-5.16-1.75c-45.65-34.92-84.48-83.53-112.31-140.57a8.5,8.5,0,0,1,1-9l61.71-77.27a8.49,8.49,0,0,1,13.28,0L366.47,1259.8a8.48,8.48,0,0,1,0,10.6l-61.7,77.28A8.49,8.49,0,0,1,298.12,1350.87Zm-99.81-145c25.11,49.86,59,92.7,98.44,124.58L349,1265.1,250,1141.18Z"/><path class="cls-1" d="M469.66,1406.1a8.51,8.51,0,0,1-8.5-8.5V582.42a8.5,8.5,0,0,1,17,0V1397.6A8.5,8.5,0,0,1,469.66,1406.1Z"/><path class="cls-1" d="M359.83,1384.17a8.5,8.5,0,0,1-8.5-8.5V604.35a8.5,8.5,0,0,1,17,0v771.32A8.5,8.5,0,0,1,359.83,1384.17Z"/><path class="cls-1" d="M250,1302.57a8.5,8.5,0,0,1-8.5-8.5V686a8.5,8.5,0,0,1,17,0v608.12A8.51,8.51,0,0,1,250,1302.57Z"/><path class="cls-1" d="M579.49,1384.17a8.5,8.5,0,0,1-8.5-8.5V604.35a8.5,8.5,0,0,1,17,0v771.32A8.49,8.49,0,0,1,579.49,1384.17Z"/><path class="cls-1" d="M689.33,1302.57a8.5,8.5,0,0,1-8.5-8.5V686a8.5,8.5,0,0,1,17,0v608.12A8.51,8.51,0,0,1,689.33,1302.57Z"/><path class="cls-1" d="M799.16,998.51h-659a8.5,8.5,0,0,1,0-17h659a8.5,8.5,0,1,1,0,17Z"/><path class="cls-1" d="M712.92,1273.6H225.57a8.5,8.5,0,1,1,0-17H712.92a8.5,8.5,0,1,1,0,17Z"/><path class="cls-1" d="M715.9,723.42H228.55a8.5,8.5,0,0,1,0-17H715.9a8.5,8.5,0,0,1,0,17Z"/><path class="cls-1" d="M780.55,861H155.94a8.5,8.5,0,0,1,0-17H780.55a8.5,8.5,0,0,1,0,17Z"/><path class="cls-1" d="M782,1136.05H157.36a8.5,8.5,0,1,1,0-17H782a8.5,8.5,0,0,1,0,17Z"/><path class="cls-1" d="M384,601.55c-75.25,0-124.73-40.53-176.36-82.81-15.9-13-32.34-26.47-49.83-39C87.87,429.63,9.29,429.05,8.5,429.05a8.5,8.5,0,0,1-2.17-16.72c87.6-23.12,164.92-21.13,236.41,6.09,61.63,23.47,108.6,61.55,150.05,95.14,29.38,23.82,54.76,44.39,80.4,56.08a8.51,8.51,0,0,1-.8,15.79C439.1,596.71,410,601.55,384,601.55ZM59.1,418.48c30.4,6.63,70.44,20.09,108.62,47.43,17.95,12.86,34.6,26.49,50.71,39.68,64.79,53.06,121.24,99.28,229.13,69.69-21.42-12.79-43-30.26-65.48-48.51C308,466.75,217.49,393.36,59.1,418.48Z"/><path class="cls-1" d="M469.67,585.87a8.47,8.47,0,0,1-6.5-3c-.84-1-20.74-24.76-41.66-66.34-19.27-38.29-43-99.55-46.6-174-3-62.46,12.33-104.73,33.58-163.23C424,136.79,443.17,83.86,461.39,6.55a8.5,8.5,0,0,1,16.55,3.9c-18.45,78.28-37.87,131.73-53.47,174.67-21.34,58.75-35.44,97.56-32.58,156.61,6.63,136.73,83.49,229.24,84.27,230.16a8.49,8.49,0,0,1-6.49,14Z"/><path class="cls-1" d="M322,475.18a8.5,8.5,0,0,1-8.12-6c-.28-.91-28.33-91.49-74.88-151S115.78,208.31,115,207.81a8.5,8.5,0,0,1,5.65-15.56c1.91.23,47.44,5.85,102.9,23.55C298.66,239.77,353,273,385,314.56a8.5,8.5,0,0,1-13.46,10.38c-37.23-48.3-103.84-77.2-153.17-92.95A636.52,636.52,0,0,0,155,215.45c27.43,20.75,67.68,54.28,97.37,92.24,48.52,62,76.57,152.67,77.74,156.5a8.49,8.49,0,0,1-5.64,10.61A8.32,8.32,0,0,1,322,475.18Z"/><path class="cls-1" d="M469.67,585.87h-.21c-77.58-1.82-144.18-42.79-208.59-82.42-38.54-23.71-78.4-48.23-119.59-63.48-46.14-17.07-87.75-20.6-131-11.12a8.5,8.5,0,1,1-3.64-16.6c102-22.39,183.9,28,263.1,76.72,62.48,38.44,127.09,78.19,200.08,79.91a8.5,8.5,0,0,1-.19,17Z"/><path class="cls-1" d="M429.72,520.44a8.51,8.51,0,0,1-7.83-5.17c-23.82-55.88-54.64-106.76-91.62-151.21a555.86,555.86,0,0,0-99.78-93.82C168,224.72,117.66,209,117.16,208.82a8.5,8.5,0,0,1,5-16.26c2.14.65,53.09,16.5,117.74,63.47A572.91,572.91,0,0,1,343,352.79C381.19,398.6,413,451,437.53,508.6a8.5,8.5,0,0,1-7.81,11.84Z"/><path class="cls-1" d="M469.66,577.33a8.51,8.51,0,0,1-8.5-8.5V8.5a8.5,8.5,0,0,1,17,0V568.83A8.5,8.5,0,0,1,469.66,577.33Z"/><path class="cls-1" d="M555.31,601.55c-26,0-55.08-4.84-88.38-16.12a8.5,8.5,0,0,1-.79-15.79c25.63-11.69,51-32.26,80.4-56.08C588,480,635,441.89,696.59,418.42c71.48-27.22,148.81-29.21,236.4-6.09a8.5,8.5,0,0,1-2.17,16.72c-.78,0-79.56.72-149.32,50.69-17.5,12.53-33.94,26-49.83,39C680,561,630.54,601.55,555.31,601.55Zm-63.55-26.27c107.9,29.6,164.34-16.63,229.14-69.69,16.1-13.19,32.76-26.82,50.7-39.68,38.18-27.34,78.22-40.8,108.62-47.43-158.41-25.13-248.93,48.27-323,108.29C534.73,545,513.18,562.49,491.76,575.28Z"/><path class="cls-1" d="M469.66,585.87a8.49,8.49,0,0,1-6.49-14c.19-.23,19.67-23.55,39.71-63.5,18.42-36.72,41.1-95.45,44.55-166.66,2.87-59.05-11.23-97.86-32.58-156.61-15.6-42.94-35-96.39-53.46-174.67a8.5,8.5,0,0,1,16.55-3.9c18.21,77.31,37.44,130.24,52.89,172.77,21.25,58.5,36.61,100.77,33.58,163.23-3.61,74.42-27.33,135.68-46.59,174C496.9,558.1,477,581.87,476.16,582.86A8.49,8.49,0,0,1,469.66,585.87Z"/><path class="cls-1" d="M617.3,475.18a8.21,8.21,0,0,1-2.48-.38,8.5,8.5,0,0,1-5.65-10.61c1.17-3.83,29.22-94.47,77.74-156.5,29.69-38,69.93-71.49,97.37-92.23a631.25,631.25,0,0,0-63.64,16.63c-49.22,15.74-115.7,44.62-152.87,92.85a8.5,8.5,0,0,1-13.47-10.38c32-41.56,86.36-74.79,161.47-98.76,55.46-17.7,101-23.32,102.89-23.55a8.5,8.5,0,0,1,5.66,15.56c-.77.5-77.37,50.72-124,110.35s-74.59,150.09-74.87,151A8.51,8.51,0,0,1,617.3,475.18Z"/><path class="cls-1" d="M469.66,585.87a8.5,8.5,0,0,1-.2-17c73-1.72,137.6-41.47,200.08-79.91,79.21-48.72,161.11-99.11,263.1-76.72a8.5,8.5,0,1,1-3.64,16.6c-43.21-9.48-84.82-6-131,11.12-41.2,15.25-81,39.77-119.6,63.48-64.41,39.63-131,80.6-208.59,82.42Z"/><path class="cls-1" d="M509.61,520.44a8.5,8.5,0,0,1-7.82-11.84c24.54-57.57,56.35-110,94.53-155.81A572.85,572.85,0,0,1,699.46,256c64.66-47,115.6-62.82,117.74-63.47a8.5,8.5,0,0,1,5,16.26h0c-.51.15-50.88,15.9-113.33,61.42a555.92,555.92,0,0,0-99.79,93.82c-37,44.45-67.8,95.33-91.62,151.21A8.51,8.51,0,0,1,509.61,520.44Z"/></g></g></svg>